<?xml version="1.0" standalone="no"?>
<!DOCTYPE svg PUBLIC "-//W3C//DTD SVG 20010904//EN"
 "http://www.w3.org/TR/2001/REC-SVG-20010904/DTD/svg10.dtd">
<svg version="1.0" xmlns="http://www.w3.org/2000/svg"
 width="460.000000pt" height="333.000000pt" viewBox="0 0 460.000000 333.000000"
 preserveAspectRatio="xMidYMid meet">

<g transform="translate(0.000000,333.000000) scale(0.100000,-0.100000)"
fill="#000000" stroke="none">
<path d="M1925 3135 c-608 -72 -1111 -288 -1457 -622 -162 -158 -289 -363
-339 -548 -30 -111 -38 -390 -15 -521 48 -279 162 -491 381 -709 311 -311 725
-497 1305 -587 129 -20 184 -22 485 -22 274 -1 364 3 465 17 375 53 670 144
935 288 320 174 575 432 695 706 121 275 145 607 63 868 -176 556 -817 983
-1678 1117 -173 27 -659 34 -840 13z m650 -75 c568 -52 1089 -251 1424 -543
486 -425 538 -1009 129 -1464 -147 -163 -316 -286 -553 -403 -405 -200 -857
-291 -1375 -277 -556 15 -1037 154 -1425 412 -240 159 -389 320 -495 533 -199
400 -83 856 304 1193 351 306 872 503 1461 552 95 8 429 6 530 -3z"/>
<path d="M2333 2956 c-17 -8 -36 -23 -42 -35 -7 -12 -11 -91 -11 -203 0 -180
0 -184 28 -243 16 -33 54 -94 85 -135 62 -82 73 -114 63 -193 -3 -29 -9 -78
-12 -110 -6 -53 -9 -59 -39 -71 -17 -8 -48 -28 -68 -45 l-36 -32 -49 25 c-109
55 -270 71 -424 42 -103 -20 -167 -46 -245 -102 -88 -62 -268 -237 -299 -290
-32 -54 -61 -192 -70 -326 l-7 -107 -29 6 c-19 4 -35 0 -48 -12 -26 -23 -54
-110 -47 -145 4 -19 1 -33 -9 -41 -24 -20 -35 -56 -24 -83 14 -39 124 -148
184 -185 44 -26 72 -35 138 -42 46 -5 115 -21 154 -34 93 -32 163 -41 424 -56
201 -12 221 -11 264 5 47 18 86 56 86 85 0 9 -9 33 -19 52 l-20 36 85 29 c57
19 90 25 98 19 71 -52 179 -123 224 -146 49 -26 63 -29 153 -29 133 0 192 14
224 52 14 16 25 39 25 50 0 25 -52 77 -145 143 -86 61 -95 88 -38 110 111 44
138 72 154 162 6 32 20 98 31 147 27 117 28 190 4 244 -11 23 -17 45 -13 48 3
3 44 14 91 24 46 10 99 26 115 35 34 17 112 110 137 163 22 47 10 105 -32 151
-18 21 -49 68 -68 107 -20 38 -62 105 -94 148 -62 86 -105 116 -197 136 -58
13 -65 21 -65 80 0 95 -57 275 -134 428 -44 87 -66 107 -118 105 -49 -2 -86
-25 -102 -64 l-13 -30 -26 40 c-53 80 -154 119 -224 87z m107 -76 c11 -6 47
-46 80 -90 52 -68 65 -80 90 -80 34 0 50 23 50 72 0 43 21 74 44 65 21 -8 95
-164 131 -274 14 -44 32 -129 39 -188 8 -69 18 -112 29 -122 8 -9 38 -19 66
-24 100 -15 133 -39 199 -136 32 -48 68 -108 80 -133 11 -25 36 -63 56 -84 20
-22 36 -50 36 -62 0 -33 -86 -143 -123 -159 -18 -7 -66 -18 -107 -25 -58 -10
-80 -18 -102 -40 -34 -34 -37 -81 -8 -125 24 -37 26 -91 4 -170 -9 -33 -22
-94 -28 -136 -14 -92 -34 -125 -83 -138 -64 -18 -101 -46 -113 -89 -20 -63 3
-100 109 -178 50 -37 91 -70 91 -74 0 -18 -149 -35 -214 -26 -46 7 -191 94
-264 157 -39 35 -81 37 -144 10 -24 -10 -68 -24 -98 -30 -93 -20 -109 -50 -64
-126 25 -43 25 -44 5 -54 -25 -14 -167 -14 -342 -1 -171 13 -261 28 -324 52
-27 11 -88 24 -134 29 -100 11 -142 32 -218 110 -57 58 -60 64 -38 93 9 11 15
42 15 70 0 65 10 82 38 67 11 -6 29 -11 40 -11 38 0 46 27 53 174 8 147 28
268 54 314 36 66 236 252 331 308 68 40 186 66 304 67 114 0 169 -12 259 -58
63 -31 86 -28 139 19 20 19 54 41 74 49 20 8 41 25 47 36 29 54 43 310 19 354
-6 12 -40 62 -74 110 -83 116 -94 154 -94 332 0 78 3 145 7 148 10 10 62 8 83
-3z"/>
</g>
</svg>
